<svg width="1244" height="1326" viewBox="0 0 1244 1326" fill="none" xmlns="http://www.w3.org/2000/svg">
<g clip-path="url(#clip0_87_18)">
<path d="M1240 32.0001C1240 459.02 1240 886.04 1240 1326C1187.86 1326 1135.72 1326 1082 1326C1082 1229.64 1082 1133.28 1082 1034C1035.45 1034.14 988.898 1034.29 940.937 1034.44C918.902 1034.5 918.902 1034.5 896.421 1034.57C883.236 1034.61 883.236 1034.61 870.05 1034.66C864.184 1034.68 858.318 1034.69 852.452 1034.71C845.678 1034.73 838.903 1034.75 832.129 1034.77C828.668 1034.79 825.207 1034.8 821.746 1034.8C802.35 1034.82 802.35 1034.82 783 1036C782.67 1037.65 782.34 1039.3 782 1041C781.01 1041.33 780.02 1041.66 779 1042C778.962 1042.68 778.925 1043.35 778.886 1044.05C778.821 1044.94 778.755 1045.83 778.687 1046.75C778.629 1047.63 778.571 1048.51 778.511 1049.42C777.925 1052.38 776.809 1053.64 775 1056C774.127 1058.86 773.492 1061.72 772.844 1064.64C772.565 1065.42 772.287 1066.2 772 1067C771.01 1067.33 770.02 1067.66 769 1068C768.67 1070.31 768.34 1072.62 768 1075C767.01 1075.33 766.02 1075.66 765 1076C764.879 1077 764.757 1078 764.633 1079.03C764.465 1080.32 764.297 1081.61 764.125 1082.94C763.962 1084.23 763.8 1085.51 763.633 1086.84C763.424 1087.88 763.215 1088.93 763 1090C762.34 1090.33 761.68 1090.66 761 1091C760.16 1093.51 760.16 1093.51 759.5 1096.44C758.218 1101.78 758.218 1101.78 756 1104C755.408 1107.33 755.043 1110.67 754.66 1114.03C754 1117 754 1117 751 1119C750.052 1121.84 750.052 1121.84 749.437 1125.06C749.018 1127.06 748.551 1129.04 748 1131C747.34 1131.33 746.68 1131.66 746 1132C745.307 1134.81 745.307 1134.81 744.875 1138.06C744.707 1139.17 744.54 1140.27 744.367 1141.41C744.246 1142.26 744.125 1143.12 744 1144C743.01 1144.33 742.02 1144.66 741 1145C739.77 1148.51 739.77 1148.51 739 1152C738.01 1152 737.02 1152 736 1152C735.67 1156.62 735.34 1161.24 735 1166C733.68 1166.33 732.36 1166.66 731 1167C730.962 1167.82 730.925 1168.64 730.886 1169.48C730.788 1171.1 730.788 1171.1 730.687 1172.75C730.629 1173.82 730.571 1174.88 730.511 1175.98C729.955 1179.26 729.035 1180.46 727 1183C726.366 1185.29 726.004 1187.54 725.625 1189.88C724.894 1192.36 723.851 1193.25 722 1195C721.67 1196.03 721.34 1197.06 721 1198.13C720.67 1199.07 720.34 1200.02 720 1201C719.01 1201.33 718.02 1201.66 717 1202C716.939 1202.84 716.879 1203.69 716.816 1204.55C716.732 1205.65 716.649 1206.75 716.562 1207.88C716.481 1208.97 716.4 1210.06 716.316 1211.18C716 1214 716 1214 715 1216C714.34 1216 713.68 1216 713 1216C712.806 1216.93 712.613 1217.85 712.414 1218.81C712.023 1220.6 712.023 1220.6 711.625 1222.44C711.37 1223.63 711.114 1224.83 710.851 1226.06C710.43 1227.51 710.43 1227.51 710 1229C709.34 1229.33 708.68 1229.66 708 1230C707.684 1232.81 707.62 1235.6 707.539 1238.43C707 1241 707 1241 704.961 1242.35C703.99 1242.67 703.99 1242.67 703 1243C702.25 1250.2 702.25 1250.2 704.937 1256.5C705.618 1257 706.298 1257.49 707 1258C707.33 1258.99 707.66 1259.98 708 1261C708.495 1261.45 708.99 1261.91 709.5 1262.38C711 1264 711 1264 711.437 1266.56C711.623 1267.37 711.809 1268.17 712 1269C712.661 1269.27 713.322 1269.53 714.004 1269.81C714.662 1270.2 715.321 1270.6 716 1271C716.529 1273.86 716.5 1276.56 716.531 1279.47C716.686 1280.3 716.84 1281.14 717 1282C718.95 1283.23 718.95 1283.23 721 1284C721.333 1285.67 721.666 1287.33 722 1289C722.66 1289.33 723.32 1289.66 724 1290C724.66 1290.33 725.32 1290.66 726 1291C726.75 1293.63 726.75 1293.63 727 1296C727.99 1296.33 728.98 1296.66 730 1297C730.692 1298.99 731.357 1300.99 732 1303C732.742 1303.68 732.742 1303.68 733.5 1304.38C735.95 1307.02 735.88 1310.16 736.375 1313.63C737.082 1316.31 737.992 1317.16 740 1319C740.687 1321.69 740.687 1321.69 741 1324C741.99 1324.33 742.98 1324.66 744 1325C744 1325.33 744 1325.66 744 1326C677.67 1326 611.34 1326 543 1326C542.01 1323.03 542.01 1323.03 541 1320C540.34 1319.67 539.68 1319.34 539 1319C538.592 1316.68 538.255 1314.34 538 1312C537.36 1311.9 536.721 1311.79 536.062 1311.69C535.382 1311.46 534.701 1311.23 534 1311C533.039 1308.12 532.894 1306.3 532.937 1303.31C532.946 1302.5 532.955 1301.7 532.965 1300.86C532.976 1300.25 532.988 1299.63 533 1299C532.34 1299 531.68 1299 531 1299C529.039 1295.43 528.351 1292.1 527.66 1288.12C526.894 1285.66 525.845 1284.74 524 1283C523.321 1281 522.653 1279 522 1277C521.34 1276.67 520.68 1276.34 520 1276C519.432 1272.94 519.104 1269.88 518.758 1266.79C518.311 1263.86 518.311 1263.86 515.965 1262.8C515.316 1262.54 514.668 1262.27 514 1262C513.618 1260.01 513.286 1258.01 513 1256C512.28 1255.34 512.28 1255.34 511.547 1254.66C509.411 1252.37 509.282 1250.38 508.812 1247.31C508.654 1246.32 508.495 1245.32 508.332 1244.3C508.222 1243.54 508.113 1242.78 508 1242C507.01 1241.67 506.02 1241.34 505 1241C504.974 1240.23 504.948 1239.46 504.922 1238.66C504.865 1237.66 504.808 1236.66 504.75 1235.63C504.703 1234.63 504.657 1233.63 504.609 1232.6C504.408 1231.74 504.207 1230.88 504 1230C502.062 1228.8 502.062 1228.8 500 1228C498.875 1225 498.875 1225 498 1222C497.34 1221.34 496.68 1220.68 496 1220C495.138 1217.17 494.47 1214.31 493.781 1211.43C493.523 1210.63 493.265 1209.83 493 1209C492.34 1208.67 491.68 1208.34 491 1208C490.69 1206.87 490.381 1205.73 490.062 1204.56C489.344 1200.77 489.344 1200.77 486 1199C485.305 1196.19 484.988 1193.4 484.625 1190.53C484.217 1187.66 484.217 1187.66 481 1186C480.488 1183.4 480.488 1183.4 480.312 1180.38C480.247 1179.37 480.181 1178.37 480.113 1177.34C480.076 1176.57 480.038 1175.79 480 1175C479.01 1174.67 478.02 1174.34 477 1174C476.31 1171.67 475.645 1169.34 475 1167C474.509 1166.55 474.017 1166.1 473.511 1165.63C471.401 1163.35 471.276 1161.35 470.812 1158.31C470.654 1157.32 470.495 1156.32 470.332 1155.3C470.222 1154.54 470.113 1153.78 470 1153C469.01 1152.67 468.02 1152.34 467 1152C465.995 1148.99 465.896 1146.96 465.937 1143.81C465.946 1142.91 465.955 1142.01 465.965 1141.08C465.976 1140.4 465.988 1139.71 466 1139C465.01 1138.67 464.02 1138.34 463 1138C462.156 1135.6 462.156 1135.6 461.5 1132.63C460.631 1128.71 459.96 1126.7 457 1124C456.835 1123.15 456.67 1122.31 456.5 1121.44C456.224 1118.64 456.224 1118.64 453 1117C452.337 1113.66 452.048 1110.35 451.722 1106.97C451.339 1103.88 451.339 1103.88 448.969 1102.75C448.319 1102.5 447.669 1102.25 447 1102C446.618 1100.34 446.286 1098.68 446 1097C445.5 1096.57 444.999 1096.14 444.484 1095.7C442.354 1093.26 442.7 1091.49 442.812 1088.31C442.853 1086.82 442.853 1086.82 442.894 1085.3C442.929 1084.54 442.964 1083.78 443 1083C442.362 1082.89 441.724 1082.79 441.066 1082.68C440.384 1082.46 439.702 1082.23 439 1082C438.269 1080.02 437.606 1078.02 437 1076C436.265 1075.34 436.265 1075.34 435.515 1074.66C433.416 1072.36 433.278 1070.36 432.812 1067.31C432.654 1066.32 432.495 1065.32 432.332 1064.3C432.167 1063.16 432.167 1063.16 432 1062C431.01 1061.67 430.02 1061.34 429 1061C428.283 1059.02 427.617 1057.02 427 1055C426.34 1054.34 425.68 1053.68 425 1053C424.159 1049.78 423.531 1046.53 422.879 1043.26C422.006 1040.02 420.811 1037.8 419 1035C418.307 1033.01 417.642 1031.01 417 1029C416.505 1027.89 416.01 1026.77 415.5 1025.63C414.363 1022.88 413.593 1020.54 412.937 1017.69C412.332 1013.99 412.332 1013.99 410 1012C409.586 1009.18 409.586 1009.18 409.375 1005.88C409.263 1004.23 409.263 1004.23 409.148 1002.55C409.075 1001.29 409.075 1001.29 409 1000C407.68 999.67 406.36 999.34 405 999C404.961 997.736 404.961 997.736 404.922 996.445C404.837 994.802 404.837 994.802 404.75 993.125C404.703 992.035 404.657 990.944 404.609 989.82C404.408 988.89 404.207 987.959 404 987C402.078 985.726 402.078 985.726 400 985C399.278 983.357 398.606 981.69 398 980C397.34 979.67 396.68 979.34 396 979C394.473 974.42 394.815 969.859 394.812 965.063C394.794 963.559 394.794 963.559 394.775 962.026C394.773 961.059 394.771 960.093 394.769 959.098C394.765 958.216 394.761 957.334 394.757 956.426C395.019 953.811 395.593 952.208 397 950C397.66 949.67 398.32 949.34 399 949C400.048 947.025 401.052 945.025 402 943C402.66 943 403.32 943 404 943C404.402 941.329 404.402 941.329 404.812 939.625C406 936 406 936 409 934C409.165 933.32 409.33 932.639 409.5 931.938C409.747 930.979 409.747 930.979 410 930C410.99 929.67 411.98 929.34 413 929C414.035 926.682 415.035 924.348 416 922C416.66 921.67 417.32 921.34 418 921C418.309 920.01 418.619 919.02 418.937 918C419.288 917.01 419.639 916.02 420 915C420.99 914.67 421.98 914.34 423 914C423.495 912.268 423.495 912.268 424 910.5C424.495 908.768 424.495 908.768 425 907C425.99 906.67 426.98 906.34 428 906C429.209 904 429.209 904 430 902C430.66 902 431.32 902 432 902C432.082 900.886 432.165 899.773 432.25 898.625C432.497 897.429 432.745 896.233 433 895C434.937 893.938 434.937 893.938 437 893C437.691 891.008 438.359 889.008 439 887C439.99 886.67 440.98 886.34 442 886C442.049 885.313 442.098 884.626 442.148 883.918C442.223 883.017 442.298 882.116 442.375 881.188C442.444 880.294 442.514 879.401 442.586 878.481C443 876 443 876 445 873C445.99 873 446.98 873 448 873C448.103 872.216 448.206 871.433 448.312 870.625C449 868 449 868 452 866C453.062 864.033 454.071 862.034 455 860C455.66 860 456.32 860 457 860C457.103 858.886 457.206 857.773 457.312 856.625C457.539 855.429 457.766 854.233 458 853C458.99 852.34 459.98 851.68 461 851C462.062 849.033 463.071 847.034 464 845C464.66 845 465.32 845 466 845C466.082 843.886 466.165 842.773 466.25 841.625C466.497 840.429 466.745 839.233 467 838C468.937 836.875 468.937 836.875 471 836C471.702 834.348 472.369 832.681 473 831C473.99 830.34 474.98 829.68 476 829C476.343 827.669 476.676 826.336 477 825C478 824 479 823 480 822C480.33 821.134 480.66 820.268 481 819.375C481.33 818.591 481.66 817.808 482 817C482.99 816.67 483.98 816.34 485 816C485.679 814.004 486.345 812.004 487 810C487.99 809.34 488.98 808.68 490 808C490.508 805.639 490.508 805.639 490.562 803C490.792 798.208 490.792 798.208 493 796C493.99 796 494.98 796 496 796C496.124 795.196 496.247 794.391 496.375 793.563C496.581 792.717 496.787 791.871 497 791C497.66 790.67 498.32 790.34 499 790C499.704 788.013 500.371 786.012 501 784C502 783 502 783 504.875 782.813C508 783 508 783 511 785C511.341 786.665 511.674 788.332 512 790C513.458 791.625 513.458 791.625 515 793C516.155 796.467 516.328 799.542 516.562 803.188C516.646 804.46 516.73 805.732 516.816 807.043C516.877 808.019 516.937 808.995 517 810C517.99 810.33 518.98 810.66 520 811C520.082 812.114 520.165 813.228 520.25 814.375C520.497 815.571 520.745 816.768 521 818C521.66 818.279 522.32 818.557 523 818.844C523.66 819.225 524.32 819.607 525 820C525.609 822.82 525.609 822.82 525.75 826.125C525.806 827.221 525.863 828.317 525.922 829.445C525.96 830.71 525.96 830.71 526 832C526.99 832.33 527.98 832.66 529 833C530.042 836.128 530.169 838.594 530.312 841.875C530.685 846.97 531.517 849.191 535 853C535.75 856.813 535.75 856.813 536 860C536.99 860.33 537.98 860.66 539 861C539.33 866.94 539.66 872.88 540 879C541.32 879.33 542.64 879.66 544 880C544.268 881.258 544.536 882.516 544.812 883.813C545.639 887.185 546.497 888.606 549 891C550.401 896.224 550.095 901.631 550 907C550.99 907.33 551.98 907.66 553 908C554.035 910.318 555.035 912.652 556 915C556.66 915.33 557.32 915.66 558 916C558.611 919.287 558.96 922.577 559.34 925.899C560.044 929.207 560.587 929.846 563 932C563.879 934.156 563.879 934.156 564.562 936.5C565.455 939.526 566.208 941.313 568 944C568.567 946.792 568.949 949.585 569.34 952.406C569.773 955.036 569.773 955.036 571.539 956.535C573.586 958.588 573.364 960.091 573.437 962.938C573.574 966.933 573.574 966.933 576 969.938C578.999 973.031 578.532 976.262 578.629 980.442C579.06 983.415 579.807 984.07 582 986C582.144 986.846 582.289 987.691 582.437 988.563C582.623 989.367 582.809 990.171 583 991C583.661 991.23 584.322 991.459 585.004 991.695C585.662 992.126 586.321 992.557 587 993C587.361 995.547 587.514 997.765 587.5 1000.31C587.546 1006.17 588.11 1008.64 592 1013C592.75 1016.81 592.75 1016.81 593 1020C593.99 1020.33 594.98 1020.66 596 1021C596.879 1023.43 596.879 1023.43 597.562 1026.44C598.435 1030.67 598.435 1030.67 601 1034C601.625 1036.13 601.625 1036.13 602 1038C603.79 1035.32 604.622 1033.4 605.562 1030.38C606.896 1026.1 606.896 1026.1 608 1025C608.395 1022.99 608.742 1020.96 609.062 1018.94C609.239 1017.83 609.415 1016.73 609.597 1015.59C609.73 1014.74 609.863 1013.88 610 1013C611.32 1012.67 612.64 1012.34 614 1012C614.289 1010.93 614.577 1009.86 614.875 1008.75C616 1005 616 1005 617.011 1003.08C618.482 999.986 618.812 996.8 619.34 993.438C620.084 990.69 621.285 989.246 623 987C623.987 984.43 623.987 984.43 624.687 981.75C624.939 980.858 625.19 979.966 625.449 979.047C625.631 978.372 625.812 977.696 626 977C626.66 977 627.32 977 628 977C628.026 976.169 628.051 975.337 628.078 974.481C628.135 973.394 628.191 972.307 628.25 971.188C628.296 970.109 628.343 969.03 628.39 967.918C629 965 629 965 630.969 963.313C631.639 962.88 632.309 962.446 633 962C634.28 958.912 634.28 958.912 635 956C635.66 956 636.32 956 637 956C637.109 954.892 637.219 953.783 637.332 952.641C637.491 951.177 637.651 949.714 637.812 948.25C637.918 947.156 637.918 947.156 638.025 946.039C638.51 941.774 639.234 939.256 642 936C642.144 934.804 642.289 933.608 642.437 932.375C642.623 931.261 642.809 930.148 643 929C643.657 928.704 644.315 928.407 644.992 928.102C645.655 927.738 646.317 927.375 647 927C647.665 924.649 647.665 924.649 647.687 922C647.935 917.13 647.935 917.13 649 915C649.66 915 650.32 915 651 915C651.133 914.229 651.265 913.458 651.402 912.664C651.579 911.661 651.755 910.658 651.937 909.625C652.198 908.129 652.198 908.129 652.465 906.602C653 904 653 904 654 902C654.66 902 655.32 902 656 902C656.193 900.929 656.386 899.858 656.586 898.754C656.848 897.357 657.111 895.96 657.375 894.563C657.501 893.856 657.627 893.148 657.758 892.42C658.106 890.6 658.547 888.797 659 887C659.66 886.67 660.32 886.34 661 886C661.33 884.845 661.66 883.69 662 882.5C662.33 881.345 662.66 880.19 663 879C663.66 878.67 664.32 878.34 665 878C665.805 875.592 665.805 875.592 666.437 872.75C667.486 868.633 668.756 865.61 671 862C671.368 860.676 671.699 859.341 672 858C672.789 854.497 674.123 852.078 676 849C676.82 846.713 677.551 844.412 678.254 842.086C679 840 679 840 681 837C681.708 834.679 682.38 832.346 683 830C683.66 830 684.32 830 685 830C685.133 829.229 685.265 828.458 685.402 827.664C685.579 826.661 685.755 825.658 685.937 824.625C686.198 823.129 686.198 823.129 686.465 821.602C687 819 687 819 688 817C688.66 817 689.32 817 690 817C690.133 816.229 690.265 815.458 690.402 814.664C690.579 813.661 690.755 812.658 690.937 811.625C691.198 810.129 691.198 810.129 691.465 808.602C692 806 692 806 693 804C693.66 804 694.32 804 695 804C695.33 800.04 695.66 796.08 696 792C696.99 791.67 697.98 791.34 699 791C699.696 788.99 699.696 788.99 700 786.625C700.673 782.321 700.673 782.321 702.5 780.527C705.015 777.967 704.89 774.719 705.375 771.277C706 769 706 769 709 767C709.545 764.641 709.545 764.641 709.625 762C709.92 757.159 709.92 757.159 711 755C711.99 754.67 712.98 754.34 714 754C714.037 753.313 714.075 752.626 714.113 751.918C714.212 750.567 714.212 750.567 714.312 749.188C714.37 748.294 714.428 747.401 714.488 746.481C715.076 743.63 715.894 742.905 718 741C718.309 739.969 718.618 738.938 718.937 737.875C719.288 736.926 719.639 735.978 720 735C722.066 734.32 722.066 734.32 724 734C723.953 733.252 723.907 732.505 723.859 731.734C723.751 728.779 723.712 725.945 724 723C725.291 721.626 726.625 720.291 728 719C728.458 716.433 728.625 713.944 728.726 711.34C729 709 729 709 731 706C731.99 706 732.98 706 734 706C733.977 705.397 733.953 704.794 733.929 704.172C733.911 703.373 733.893 702.574 733.875 701.75C733.852 700.961 733.828 700.172 733.804 699.359C734.017 696.793 734.713 695.208 736 693C736.66 693 737.32 693 738 693C738.33 690.69 738.66 688.38 739 686C739.99 685.67 740.98 685.34 742 685C742.164 683.736 742.164 683.736 742.332 682.445C742.49 681.35 742.649 680.254 742.812 679.125C743.038 677.489 743.038 677.489 743.269 675.82C744 673 744 673 747 671C747.73 667.923 747.73 667.923 748.062 664.438C748.31 662.283 748.608 660.133 749 658C749.66 657.67 750.32 657.34 751 657C752.053 654.69 753.057 652.357 754 650C754.99 650 755.98 650 757 650C757.037 649.18 757.075 648.36 757.113 647.516C757.212 645.899 757.212 645.899 757.312 644.25C757.37 643.183 757.428 642.115 757.488 641.016C758.044 637.737 758.968 636.543 761 634C761.632 631.647 761.997 629.331 762.375 626.926C762.684 625.973 762.684 625.973 763 625C763.99 624.67 764.98 624.34 766 624C766.33 621.69 766.66 619.38 767 617C768.32 616.67 769.64 616.34 771 616C771.026 615.157 771.051 614.314 771.078 613.445C771.135 612.35 771.191 611.254 771.25 610.125C771.296 609.035 771.343 607.944 771.39 606.82C771.591 605.89 771.793 604.959 772 604C773.332 603.33 774.665 602.664 776 602C776.593 599.217 776.593 599.217 776.562 596.063C776.68 590.375 776.68 590.375 778.465 588.285C778.971 587.861 779.478 587.437 780 587C780.33 586.134 780.66 585.268 781 584.375C781.33 583.591 781.66 582.808 782 582C782.99 581.67 783.98 581.34 785 581C785.049 580.157 785.098 579.314 785.148 578.445C785.223 577.35 785.298 576.254 785.375 575.125C785.444 574.035 785.514 572.944 785.586 571.82C786 569 786 569 788 567C788.99 567 789.98 567 791 567C790.953 566.336 790.907 565.672 790.859 564.988C790.611 558.925 791.1 556.727 795 552C795.446 549.421 795.623 546.919 795.726 544.305C796 542 796 542 798 539C798.66 539 799.32 539 800 539C800 537.02 800 535.04 800 533C800.637 532.795 801.273 532.59 801.929 532.379C804.291 531.133 804.291 531.133 804.758 528.215C804.879 527.133 805 526.052 805.125 524.938C805.356 522.951 805.635 520.967 806 519C806.66 518.67 807.32 518.34 808 518C808.839 515.491 808.839 515.491 809.5 512.563C810.782 507.218 810.782 507.218 813 505C813.592 501.667 813.956 498.332 814.34 494.969C815 492 815 492 818 490C819.071 487.699 820.08 485.366 821 483C821.99 483 822.98 483 824 483C824.037 482.192 824.075 481.384 824.113 480.551C824.212 478.948 824.212 478.948 824.312 477.313C824.37 476.257 824.428 475.201 824.488 474.113C825.045 470.722 826.146 468.856 828 466C828.569 464.476 829.094 462.933 829.562 461.375C830.46 458.404 831.235 456.647 833 454C833.555 451.73 833.944 449.459 834.34 447.156C835.103 444.664 836.147 443.776 838 442C838.705 439.678 839.372 437.344 840 435C840.66 434.01 841.32 433.02 842 432C842.593 430.12 843.131 428.221 843.625 426.313C843.885 425.319 844.146 424.325 844.414 423.301C844.607 422.542 844.801 421.782 845 421C845.66 421 846.32 421 847 421C847.133 420.229 847.265 419.458 847.402 418.664C847.579 417.661 847.755 416.658 847.937 415.625C848.198 414.128 848.198 414.128 848.465 412.602C849 410 849 410 850 408C850.66 408 851.32 408 852 408C852.193 407.073 852.386 406.146 852.586 405.191C852.976 403.395 852.976 403.395 853.375 401.563C853.63 400.368 853.885 399.173 854.148 397.941C854.57 396.486 854.57 396.486 855 395C855.66 394.67 856.32 394.34 857 394C857.73 391.686 858.401 389.352 859 387C859.66 387 860.32 387 861 387C861.147 385.805 861.147 385.805 861.297 384.586C862.185 378.288 863.02 373.974 867 369C867.371 368.237 867.742 367.474 868.125 366.688C869 365 869 365 871 364C871.613 361.04 871.959 358.076 872.34 355.078C873.039 351.817 874.228 349.794 876 347C876.652 344.975 876.652 344.975 877 343C877.789 339.497 879.123 337.078 881 334C882.106 331.032 883.07 328.027 884 325C884.66 325 885.32 325 886 325C886.037 324.385 886.075 323.77 886.113 323.137C886.212 321.924 886.212 321.924 886.312 320.688C886.37 319.887 886.428 319.087 886.488 318.262C887.096 315.576 888.073 314.887 890 313C890.712 310.801 890.712 310.801 891.062 308.438C891.791 304.208 891.791 304.208 894 302C894.684 299.113 894.684 299.113 895.125 295.875C895.292 294.779 895.46 293.684 895.633 292.555C895.754 291.712 895.875 290.869 896 290C896.99 289.67 897.98 289.34 899 289C899.921 286.536 899.921 286.536 900.5 283.625C901.369 279.704 902.034 277.69 905 275C905.704 273.013 906.371 271.012 907 269C907.66 268.01 908.32 267.02 909 266C909.597 263.953 910.134 261.888 910.625 259.813C911.015 258.183 911.015 258.183 911.414 256.52C911.704 255.272 911.704 255.272 912 254C912.66 254 913.32 254 914 254C914.109 253.241 914.219 252.482 914.332 251.699C914.49 250.705 914.649 249.712 914.812 248.688C914.963 247.701 915.114 246.715 915.269 245.699C916.058 242.785 916.841 241.983 919 240C919.682 237.671 920.35 235.338 921 233C921.66 232.67 922.32 232.34 923 232C923.839 229.491 923.839 229.491 924.5 226.563C925.782 221.218 925.782 221.218 928 219C928.312 216.469 928.312 216.469 928.375 213.625C928.719 208.703 929.479 207.411 933 204C933.49 201.404 933.687 198.88 933.824 196.242C934 194 934 194 935 192C935.99 191.67 936.98 191.34 938 191C938.121 190.145 938.242 189.291 938.367 188.41C938.618 186.753 938.618 186.753 938.875 185.063C939.037 183.96 939.2 182.858 939.367 181.723C939.576 180.824 939.785 179.926 940 179C940.66 178.67 941.32 178.34 942 178C942.289 177.01 942.577 176.02 942.875 175C943.246 174.01 943.617 173.02 944 172C946.07 171.313 946.07 171.313 948 171C947.977 170.313 947.953 169.626 947.929 168.918C947.902 167.566 947.902 167.566 947.875 166.188C947.852 165.294 947.828 164.401 947.804 163.481C948 161 948 161 950 158C950.99 158 951.98 158 953 158C952.938 156.453 952.938 156.453 952.875 154.875C953.025 150.209 953.714 146.697 956.562 142.938C958.261 140.648 958.477 138.765 959 136C959.66 135.67 960.32 135.34 961 135C961.692 132.19 961.692 132.19 962.125 128.938C962.292 127.833 962.46 126.728 962.633 125.59C962.754 124.735 962.875 123.881 963 123C964.32 122.67 965.64 122.34 967 122C967.056 120.736 967.056 120.736 967.113 119.445C967.179 118.35 967.245 117.254 967.312 116.125C967.399 114.489 967.399 114.489 967.488 112.82C967.657 111.89 967.826 110.959 968 110C969.485 109.01 969.485 109.01 971 108C972.05 106.026 973.05 104.024 974 102C974.66 101.01 975.32 100.02 976 99.0001C976.553 96.6644 976.945 94.3283 977.34 91.961C977.557 91.3139 977.775 90.6668 978 90.0001C979.485 89.5051 979.485 89.5051 981 89.0001C981.038 87.519 981.038 87.519 981.078 86.0079C981.135 84.7266 981.191 83.4453 981.25 82.1251C981.319 80.2108 981.319 80.2108 981.39 78.2579C981.591 77.1828 981.793 76.1078 982 75.0001C983.969 73.7813 983.969 73.7813 986 73.0001C987.299 69.4542 987.299 69.4542 988 66.0001C988.66 66.0001 989.32 66.0001 990 66.0001C990.038 64.7355 990.038 64.7355 990.078 63.4454C990.135 62.3497 990.191 61.254 990.25 60.1251C990.319 58.4893 990.319 58.4893 990.39 56.8204C990.591 55.8897 990.793 54.959 991 54.0001C992.325 53.317 993.658 52.6498 995 52.0001C995.554 49.4113 995.554 49.4113 995.5 46.5001C995.531 43.5313 995.531 43.5313 996 41.0001C997.969 39.8165 997.969 39.8165 1000 39.0001C1000.33 38.1545 1000.66 37.3088 1001 36.4376C1001.33 35.6332 1001.66 34.8288 1002 34.0001C1078.97 14.7583 1160.66 32.0001 1240 32.0001ZM1078 291C1077.85 292.423 1077.85 292.423 1077.69 293.875C1077 297 1077 297 1074 299C1073.86 299.804 1073.71 300.609 1073.56 301.438C1073 304 1073 304 1071 305.344C1068.77 306.837 1068.77 306.837 1068.53 309.41C1068.51 311.181 1068.49 312.952 1068.47 314.723C1068.31 315.474 1068.16 316.226 1068 317C1067.34 317.295 1066.69 317.59 1066.02 317.895C1065.35 318.259 1064.69 318.624 1064 319C1063.29 322.109 1063.29 322.109 1063.25 325.625C1063.19 326.814 1063.14 328.002 1063.08 329.227C1063.05 330.142 1063.03 331.057 1063 332C1062.01 332.33 1061.02 332.66 1060 333C1059.32 334.661 1058.65 336.328 1058 338C1057.01 338.66 1056.02 339.32 1055 340C1054.41 342.886 1054.41 342.886 1054.31 346.125C1054.21 347.769 1054.21 347.769 1054.11 349.445C1054.08 350.288 1054.04 351.132 1054 352C1052.68 352.33 1051.36 352.66 1050 353C1049.67 355.31 1049.34 357.62 1049 360C1048.01 360.33 1047.02 360.66 1046 361C1045.87 362.12 1045.73 363.24 1045.6 364.395C1045.42 365.867 1045.24 367.34 1045.06 368.813C1044.93 369.92 1044.93 369.92 1044.8 371.049C1044.42 374.167 1044 377.011 1043 380C1042.01 380.495 1042.01 380.495 1041 381C1040.59 383.322 1040.26 385.657 1040 388C1038.68 388 1037.36 388 1036 388C1035.89 388.869 1035.78 389.738 1035.67 390.633C1034.84 396.683 1034.05 401.638 1031 407C1029.61 410.753 1028.44 414.583 1027.25 418.402C1025.89 422.66 1024.37 426.187 1022 430C1021.67 431.073 1021.34 432.145 1021 433.25C1020.67 434.158 1020.34 435.065 1020 436C1019.01 436.33 1018.02 436.66 1017 437C1015.48 440.042 1015.66 443.225 1015.48 446.59C1014.92 449.391 1014.05 450.117 1012 452C1011.75 454.626 1011.75 454.626 1012 457C1009.52 457.99 1009.52 457.99 1007 459C1006.96 460.156 1006.96 460.156 1006.92 461.336C1006.86 462.339 1006.81 463.342 1006.75 464.375C1006.7 465.373 1006.66 466.371 1006.61 467.399C1006.41 468.257 1006.21 469.116 1006 470C1005.33 470.322 1004.67 470.645 1003.98 470.977C1003 471.483 1003 471.483 1002 472C1001.44 474.819 1001.44 474.819 1001.5 478C1001.47 481.25 1001.47 481.25 1001 484C999.015 485.149 999.015 485.149 997 486C996.181 489.562 996.181 489.562 996 493C995.01 493.33 994.02 493.66 993 494C992.974 494.603 992.948 495.207 992.922 495.828C992.837 497.027 992.837 497.027 992.75 498.25C992.703 499.039 992.657 499.828 992.609 500.641C992 503 992 503 990 504.906C987.356 507.674 987.414 509.48 987.25 513.25C987.193 514.328 987.136 515.405 987.078 516.516C987.052 517.336 987.026 518.155 987 519C985.68 519.33 984.36 519.66 983 520C982.67 522.31 982.34 524.62 982 527C981.01 527.33 980.02 527.66 979 528C978.974 528.915 978.948 529.831 978.922 530.774C978.837 532.556 978.837 532.556 978.75 534.375C978.703 535.558 978.657 536.742 978.609 537.961C978.307 539.465 978.307 539.465 978 541C976.019 542.106 976.019 542.106 974 543C973.192 545.308 973.192 545.308 972.937 547.938C972.312 552.705 972.312 552.705 970.484 554.43C968.244 556.799 968.484 558.997 968.312 562.188C968.247 563.274 968.181 564.361 968.113 565.481C968.076 566.312 968.038 567.143 968 568C967.01 568.33 966.02 568.66 965 569C963.967 570.983 962.966 572.984 962 575C961.34 575.33 960.68 575.66 960 576C959.307 578.81 959.307 578.81 958.875 582.063C958.707 583.167 958.54 584.272 958.367 585.41C958.246 586.265 958.125 587.12 958 588C957.01 588.33 956.02 588.66 955 589C954.67 591.31 954.34 593.62 954 596C953.01 596.33 952.02 596.66 951 597C950.078 599.429 950.078 599.429 949.5 602.313C948.6 606.323 947.577 608.807 945 612C944.835 612.722 944.67 613.444 944.5 614.188C944.335 614.786 944.17 615.384 944 616C943.01 616.33 942.02 616.66 941 617C939.802 619.396 939.827 621.143 939.687 623.813C939.275 628.552 937.962 630.297 935 634C934.595 636.581 934.438 639.084 934.371 641.695C934 644 934 644 932.547 645.449C930.35 647.652 930.276 649.653 929.812 652.688C929.654 653.682 929.495 654.675 929.332 655.699C929.167 656.838 929.167 656.838 929 658C928.01 658.33 927.02 658.66 926 659C925.67 661.31 925.34 663.62 925 666C924.34 666 923.68 666 923 666C922.495 667.603 921.996 669.207 921.5 670.813C921.082 672.153 921.082 672.153 920.656 673.52C919.872 676.056 919.872 676.056 920 679C919.34 679 918.68 679 918 679C917.497 680.791 916.997 682.583 916.5 684.375C916.221 685.373 915.943 686.371 915.656 687.399C914.918 689.876 914.918 689.876 915 692C914.01 692.33 913.02 692.66 912 693C911.917 694.114 911.835 695.228 911.75 696.375C911.502 697.571 911.255 698.768 911 700C910.346 700.285 909.693 700.57 909.019 700.863C908.353 701.239 907.686 701.614 907 702C906.186 704.703 906.186 704.703 905.937 707.813C905.432 712.387 904.454 715.128 902 719C901.314 721.16 901.314 721.16 900.937 723.25C900.628 724.488 900.319 725.725 900 727C899.34 727.33 898.68 727.66 898 728C897.592 730.322 897.255 732.657 897 735C895.68 735.33 894.36 735.66 893 736C892.89 736.797 892.781 737.593 892.668 738.414C891.801 744.208 890.826 748.819 888 754C887.209 756.65 886.605 759.299 886 762C885.34 762 884.68 762 884 762C883.806 762.566 883.613 763.132 883.414 763.715C883.153 764.448 882.893 765.182 882.625 765.938C882.242 767.034 882.242 767.034 881.851 768.152C881 770 881 770 879 771C878.307 773.81 878.307 773.81 877.875 777.063C877.623 778.72 877.623 778.72 877.367 780.41C877.246 781.265 877.125 782.12 877 783C876.01 783.33 875.02 783.66 874 784C872.467 787.066 872.664 790.296 872.476 793.688C872 796 872 796 869 798C869.791 800 869.791 800 871 802C874.299 803.1 876.727 803.126 880.201 803.127C881.502 803.13 882.803 803.133 884.143 803.136C885.589 803.134 887.035 803.132 888.481 803.13C890.003 803.131 891.525 803.133 893.047 803.135C897.199 803.139 901.35 803.138 905.502 803.134C909.89 803.132 914.278 803.134 918.666 803.136C926.082 803.138 933.497 803.135 940.913 803.13C949.358 803.125 957.804 803.127 966.249 803.132C973.569 803.137 980.89 803.137 988.21 803.135C993.273 803.133 998.337 803.134 1003.4 803.139C1022.36 803.142 1041.3 802.928 1060.25 802.492C1062.38 802.444 1064.5 802.397 1066.63 802.349C1071.75 802.234 1076.88 802.118 1082 802C1082.02 755.663 1082.03 709.325 1082.04 662.988C1082.04 662.301 1082.04 661.615 1082.04 660.907C1082.05 645.983 1082.05 631.059 1082.05 616.134C1082.05 608.815 1082.05 601.495 1082.05 594.175C1082.05 593.083 1082.05 593.083 1082.06 591.968C1082.06 568.391 1082.07 544.813 1082.08 521.235C1082.09 496.992 1082.09 472.748 1082.09 448.504C1082.09 445.074 1082.09 441.645 1082.09 438.215C1082.09 437.54 1082.09 436.865 1082.09 436.169C1082.1 425.335 1082.1 414.501 1082.11 403.667C1082.11 392.755 1082.11 381.844 1082.11 370.933C1082.11 365.029 1082.11 359.125 1082.12 353.221C1082.12 347.803 1082.12 342.385 1082.12 336.967C1082.12 335.019 1082.12 333.072 1082.12 331.124C1082.14 321.342 1082.01 311.587 1081.55 301.815C1081.52 300.958 1081.48 300.101 1081.44 299.219C1081.31 294.973 1081.31 294.973 1080 291C1079.34 291 1078.68 291 1078 291Z" fill="#254F22"/>
<path d="M4 32.0001C93.2129 31.9598 93.2129 31.9598 131.066 31.9513C139.724 31.9493 148.382 31.9473 157.04 31.9452C158.124 31.9449 159.208 31.9446 160.326 31.9444C177.619 31.9401 194.912 31.9322 212.205 31.923C230.078 31.9135 247.951 31.908 265.823 31.906C275.809 31.9048 285.795 31.9019 295.781 31.8944C336.236 31.8647 376.685 31.9514 417.137 32.4122C419.905 32.4434 422.673 32.4732 425.442 32.5027C429.753 32.5493 434.065 32.601 438.376 32.6568C439.948 32.6767 441.52 32.6952 443.092 32.7122C465.886 32.9636 465.886 32.9636 468.625 35.5121C469.306 36.2486 469.306 36.2486 470 37.0001C472.211 37.5442 472.211 37.5442 474.676 37.6251C476.042 37.7257 476.042 37.7257 477.436 37.8282C478.86 37.9133 478.86 37.9133 480.312 38.0001C491.62 38.684 491.62 38.684 497 42.0001C497 42.9901 497 43.9801 497 45.0001C497.592 45.0375 498.183 45.0749 498.793 45.1134C503.505 45.5054 507.242 45.8485 511 49.0001C511 49.9901 511 50.9801 511 52.0001C511.843 52.0607 512.686 52.1213 513.555 52.1837C515.198 52.3094 515.198 52.3094 516.875 52.4376C518.511 52.5594 518.511 52.5594 520.18 52.6837C523 53.0001 523 53.0001 525 54.0001C525.062 55.1757 525.062 55.1757 525.125 56.3751C525.414 57.2414 525.703 58.1076 526 59.0001C528.026 60.0002 530.01 60.6279 532.188 61.2267C533.085 61.6095 533.085 61.6095 534 62.0001C534.33 62.9901 534.66 63.9801 535 65.0001C536.82 65.5801 536.82 65.5801 538.938 65.8126C541.121 66.2618 541.121 66.2618 543 67.0001C544.5 70.1251 544.5 70.1251 545 73.0001C548.96 73.4951 548.96 73.4951 553 74.0001C553.33 76.3101 553.66 78.6201 554 81.0001C554.928 80.9589 555.856 80.9176 556.812 80.8751C560 81.0001 560 81.0001 563 83.0001C563.33 83.9901 563.66 84.9801 564 86.0001C564.99 86.3301 565.98 86.6601 567 87.0001C567.33 89.3101 567.66 91.6201 568 94.0001C569.361 93.9073 569.361 93.9073 570.75 93.8126C574.338 94.0196 575.536 94.4451 578 97.0001C578.362 98.326 578.697 99.6595 579 101C579.99 101.66 580.98 102.32 582 103C582.688 106.125 582.688 106.125 583 109C584.32 109.33 585.64 109.66 587 110C587.083 110.619 587.165 111.238 587.25 111.875C587.497 112.576 587.745 113.278 588 114C588.66 114.309 589.32 114.619 590 114.938C590.66 115.288 591.32 115.639 592 116C592.333 117.667 592.667 119.333 593 121C594.315 121.702 595.651 122.365 597 123C597.474 123.804 597.949 124.609 598.438 125.438C599.782 128.185 599.782 128.185 602.5 129.125C605.624 131.468 605.573 132.699 606.375 136.438C607.19 140.429 607.19 140.429 609.668 143.469C611.42 144.365 613.209 145.186 615 146C616.25 148.188 616.25 148.188 617 150C617.99 150.33 618.98 150.66 620 151C620.66 154.96 621.32 158.92 622 163C622.99 163.33 623.98 163.66 625 164C625.33 166.31 625.66 168.62 626 171C626.99 171.33 627.98 171.66 629 172C629.844 174.399 629.844 174.399 630.5 177.375C631.369 181.298 632.038 183.306 635 186C635.667 188 636.333 190 637 192C637.507 192.465 638.013 192.931 638.535 193.41C640.433 195.47 640.358 196.678 640.438 199.438C640.63 203.151 640.63 203.151 643 205.938C645.853 208.88 645.526 211.58 645.629 215.563C646.075 218.495 647.207 219.677 649 222C649.879 224.692 649.879 224.692 650.562 227.563C651.391 231.01 652.005 233.007 654 236C654.446 238.964 654.37 241.943 654.375 244.938C654.399 245.749 654.424 246.561 654.449 247.397C654.479 253.404 654.479 253.404 652.043 256.438C651.369 256.953 650.695 257.469 650 258C649.317 259.325 648.649 260.658 648 262C647 263 646 264 645 265C644.258 266.33 644.258 266.33 643.5 267.688C642.758 268.832 642.758 268.832 642 270C641.01 270 640.02 270 639 270C638.959 270.743 638.917 271.485 638.875 272.25C637.654 276.087 635.303 276.82 632 279C630.114 282.1 630.114 282.1 629 285C628.01 285 627.02 285 626 285C625.67 286.65 625.34 288.3 625 290C623.68 290.33 622.36 290.66 621 291C620.67 292.98 620.34 294.96 620 297C618.68 297.33 617.36 297.66 616 298C615.814 299.702 615.814 299.702 615.625 301.438C615.419 302.613 615.213 303.789 615 305C614.01 305.495 614.01 305.495 613 306C612.526 306.846 612.051 307.691 611.562 308.563C610.789 309.769 610.789 309.769 610 311C609.01 311 608.02 311 607 311C606.876 312.671 606.876 312.671 606.75 314.375C606.503 315.571 606.255 316.768 606 318C604.062 319.063 604.062 319.063 602 320C600.708 323.042 600.708 323.042 600 326C599.34 326 598.68 326 598 326C597.732 326.969 597.464 327.939 597.188 328.938C596.6 330.454 596.6 330.454 596 332C595.01 332.33 594.02 332.66 593 333C592.67 333.99 592.34 334.98 592 336C591.67 336.99 591.34 337.98 591 339C590.01 339.33 589.02 339.66 588 340C587.67 341.155 587.34 342.31 587 343.5C586.67 344.655 586.34 345.81 586 347C585.01 347.33 584.02 347.66 583 348C581.791 350 581.791 350 581 352C580.34 352 579.68 352 579 352C578.876 353.671 578.876 353.671 578.75 355.375C578.503 356.571 578.255 357.768 578 359C576.125 360.063 576.125 360.063 574 361C572.952 362.975 571.948 364.975 571 367C570.01 367.495 570.01 367.495 569 368C568.381 369.176 568.381 369.176 567.75 370.375C566 373 566 373 562.938 374.438C559.711 375.749 559.711 375.749 558.75 379.125C558.503 380.074 558.255 381.023 558 382C557.01 382.495 557.01 382.495 556 383C555.691 383.825 555.381 384.65 555.062 385.5C554.712 386.325 554.361 387.15 554 388C553.01 388.33 552.02 388.66 551 389C550.288 390.454 550.288 390.454 549.562 391.938C547.856 395.283 547.202 395.506 544 397C543.195 399.05 543.195 399.05 543 401C541.68 400.67 540.36 400.34 539 400C538.67 391.75 538.34 383.5 538 375C536.68 374.67 535.36 374.34 534 374C532.457 369.029 532.671 363.788 532.477 358.629C531.981 354.857 531.017 353.141 529 350C528.27 347.106 528.27 347.106 527.812 344.188C527.575 342.724 527.575 342.724 527.332 341.231C527.222 340.495 527.113 339.758 527 339C526.34 339 525.68 339 525 339C524.67 336.69 524.34 334.38 524 332C523.361 331.856 522.721 331.711 522.062 331.563C520 331 520 331 519 330C518.928 328.147 518.916 326.292 518.938 324.438C518.947 323.426 518.956 322.414 518.965 321.371C518.982 320.198 518.982 320.198 519 319C518.361 318.896 517.721 318.791 517.062 318.684C516.382 318.458 515.701 318.233 515 318C514.321 316.004 513.654 314.004 513 312C511.033 310.85 511.033 310.85 509 310C508.711 309.381 508.422 308.763 508.125 308.125C506.497 305.051 503.863 303.889 501 302C500.67 301.01 500.34 300.02 500 299C498 297.791 498 297.791 496 297C496 295.02 496 293.04 496 291C495.196 290.732 494.391 290.464 493.562 290.188C492.717 289.796 491.871 289.404 491 289C490.67 288.01 490.34 287.02 490 286C487.936 284.869 487.936 284.869 485.5 284C483.031 283.063 483.031 283.063 481 282C480.67 281.01 480.34 280.02 480 279C478.126 278.198 478.126 278.198 475.938 277.813C475.204 277.654 474.471 277.495 473.715 277.332C473.149 277.223 472.583 277.113 472 277C471.67 274.69 471.34 272.38 471 270C470.241 270.023 469.481 270.047 468.699 270.07C467.705 270.088 466.711 270.107 465.688 270.125C464.701 270.148 463.715 270.172 462.699 270.195C460 270 460 270 457 268C457 267.34 457 266.68 457 266C440.009 264.221 423.123 263.597 406.046 263.418C403.878 263.394 401.71 263.367 399.541 263.34C362.661 262.866 325.779 262.782 288.897 262.703C278.988 262.682 269.078 262.655 259.169 262.629C241.515 262.582 223.861 262.538 206.207 262.497C189.114 262.458 172.021 262.416 154.928 262.372C153.854 262.37 152.78 262.367 151.673 262.364C143.266 262.343 134.859 262.321 126.451 262.299C85.6343 262.194 44.8172 262.098 4 262C4 186.1 4 110.2 4 32.0001Z" fill="#254F22"/>
<path d="M906 0C909.3 0 912.6 0 916 0C915.625 2.4375 915.625 2.4375 915 5C914.34 5.33 913.68 5.66 913 6C912.711 6.99 912.423 7.98 912.125 9C911.754 9.99 911.383 10.98 911 12C908.875 12.875 908.875 12.875 907 13C906.876 14.1344 906.753 15.2688 906.625 16.4375C906.419 17.6131 906.213 18.7887 906 20C905.34 20.33 904.68 20.66 904 21C903.552 22.8003 903.166 24.6162 902.813 26.4375C901.515 31.6553 901.515 31.6553 899.25 33.1719C897.313 33.6875 897.313 33.6875 894 34C893.891 34.843 893.781 35.6861 893.668 36.5547C893.51 37.6504 893.351 38.7461 893.188 39.875C893.037 40.9655 892.886 42.0561 892.731 43.1797C892 46 892 46 889 48C887.984 49.9918 886.983 51.9915 886 54C885.34 54.33 884.68 54.66 884 55C882.983 56.9915 881.984 58.9919 881 61C880.34 61.66 879.68 62.32 879 63C878.691 64.0106 878.381 65.0212 878.063 66.0625C877.712 67.0319 877.362 68.0013 877 69C875.515 69.495 875.515 69.495 874 70C872.951 71.6363 871.951 73.3049 871 75C870.34 75.66 869.68 76.32 869 77C868.67 77.8456 868.34 78.6913 868 79.5625C867 82 867 82 865 83C864.691 83.9694 864.381 84.9388 864.063 85.9375C863 89 863 89 860 91C859.309 92.9917 858.641 94.9916 858 97C857.34 97.33 856.68 97.66 856 98C855.876 98.6394 855.753 99.2787 855.625 99.9375C855.419 100.618 855.213 101.299 855 102C854.041 102.433 854.041 102.433 853.063 102.875C850.043 104.522 850.012 106.828 849 110C847.515 110.495 847.515 110.495 846 111C845.691 111.99 845.381 112.98 845.063 114C844.712 114.99 844.362 115.98 844 117C841.875 117.875 841.875 117.875 840 118C839.876 119.134 839.753 120.269 839.625 121.438C839.419 122.613 839.213 123.789 839 125C838.34 125.33 837.68 125.66 837 126C836.289 127.268 836.289 127.268 835.563 128.562C834.789 129.769 834.789 129.769 834 131C833.01 131 832.02 131 831 131C831.012 131.687 831.023 132.374 831.035 133.082C831.049 134.434 831.049 134.434 831.063 135.812C831.074 136.706 831.086 137.599 831.098 138.52C831 141 831 141 830 144C828.68 144 827.36 144 826 144C825.918 145.114 825.835 146.227 825.75 147.375C825.503 148.571 825.255 149.768 825 151C823.063 152.062 823.063 152.062 821 153C820.309 154.992 819.641 156.992 819 159C818.01 159.33 817.02 159.66 816 160C815.298 161.652 814.631 163.319 814 165C813.34 165.33 812.68 165.66 812 166C811.691 166.99 811.381 167.98 811.063 169C810.712 169.99 810.362 170.98 810 172C809.01 172.33 808.02 172.66 807 173C806.295 175.322 805.628 177.656 805 180C804.34 180.33 803.68 180.66 803 181C802.691 181.825 802.381 182.65 802.063 183.5C801.712 184.325 801.362 185.15 801 186C800.01 186.33 799.02 186.66 798 187C797.308 188.991 796.643 190.992 796 193C794.5 194.625 794.5 194.625 793 196C792.65 196.701 792.299 197.402 791.938 198.125C791 200 791 200 789 201C788.691 201.969 788.381 202.939 788.063 203.938C787 207 787 207 784 209C783.67 209.825 783.34 210.65 783 211.5C782 214 782 214 779 216C778.313 217.658 777.645 219.325 777 221C776.34 221.33 775.68 221.66 775 222C774.711 222.99 774.423 223.98 774.125 225C773.754 225.99 773.383 226.98 773 228C770.875 228.875 770.875 228.875 769 229C768.67 231.31 768.34 233.62 768 236C767.01 236.33 766.02 236.66 765 237C764.891 237.699 764.781 238.397 764.668 239.117C764.51 240.027 764.351 240.937 764.188 241.875C764.037 242.78 763.886 243.685 763.731 244.617C763 247 763 247 760 249C758.938 250.968 757.929 252.966 757 255C756.34 255 755.68 255 755 255C754.67 257.31 754.34 259.62 754 262C753.01 262.33 752.02 262.66 751 263C749.285 266.503 749.285 266.503 748 270C747.01 270 746.02 270 745 270C744.711 271.114 744.423 272.228 744.125 273.375C743 277 743 277 741 279C740.691 279.804 740.381 280.609 740.063 281.438C738.993 284.017 737.975 285.111 736 287C735.67 287.99 735.34 288.98 735 290C733.995 290.433 733.995 290.433 732.969 290.875C732.319 291.246 731.67 291.617 731 292C730.447 294.358 730.447 294.358 730.5 297C730.469 299.688 730.469 299.688 730 302C728.035 303.094 728.035 303.094 726 304C725.295 306.322 724.628 308.656 724 311C723.01 311.66 722.02 312.32 721 313C720.67 313.846 720.34 314.691 720 315.562C719.67 316.367 719.34 317.171 719 318C718.01 318.33 717.02 318.66 716 319C715.897 319.763 715.794 320.526 715.688 321.312C714.924 324.299 714.203 324.967 712 327C710.962 328.643 709.965 330.312 709 332C706.301 336.723 706.301 336.723 704.438 338.438C702.734 340.061 702.734 340.061 702.063 343.125C701.712 344.074 701.362 345.022 701 346C698.875 346.875 698.875 346.875 697 347C696.815 348.702 696.815 348.702 696.625 350.438C696.419 351.613 696.213 352.789 696 354C695.01 354.495 695.01 354.495 694 355C693.526 355.846 693.052 356.691 692.563 357.562C691.789 358.769 691.789 358.769 691 360C690.01 360 689.02 360 688 360C687.67 362.31 687.34 364.62 687 367C686.01 367.33 685.02 367.66 684 368C682.934 370.304 681.936 372.64 681 375C680.34 375.99 679.68 376.98 679 378C678.447 380.336 678.055 382.672 677.66 385.039C677.443 385.686 677.225 386.333 677 387C676.01 387.33 675.02 387.66 674 388C673.67 388.99 673.34 389.98 673 391C672.67 391.99 672.34 392.98 672 394C671.01 394.33 670.02 394.66 669 395C668.296 396.987 667.629 398.988 667 401C666.01 401.495 666.01 401.495 665 402C664.505 403.155 664.01 404.31 663.5 405.5C662 409 662 409 660 410C659.691 410.825 659.381 411.65 659.063 412.5C658.712 413.325 658.362 414.15 658 415C657.01 415.33 656.02 415.66 655 416C654.322 418.33 653.656 420.664 653 423C652.01 423.66 651.02 424.32 650 425C649.318 426.325 648.65 427.658 648 429C647.01 429.495 647.01 429.495 646 430C645.691 430.969 645.381 431.939 645.063 432.938C644 436 644 436 641 438C640.67 439.011 640.34 440.021 640 441.062C639.67 442.032 639.34 443.001 639 444C638.01 444.33 637.02 444.66 636 445C635.295 447.322 634.628 449.656 634 452C633.01 452.495 633.01 452.495 632 453C631.258 454.237 631.258 454.237 630.5 455.5C629 458 629 458 627 459C626.147 461.784 625.527 464.595 624.879 467.434C624 470 624 470 621 472C619.938 473.968 618.929 475.966 618 478C617.34 478 616.68 478 616 478C615.67 480.31 615.34 482.62 615 485C614.01 485.33 613.02 485.66 612 486C611.67 487.65 611.34 489.3 611 491C610.01 491.33 609.02 491.66 608 492C607.505 493.155 607.01 494.31 606.5 495.5C606.005 496.655 605.51 497.81 605 499C604.01 499.33 603.02 499.66 602 500C601.283 501.982 600.617 503.984 600 506C599.34 506.66 598.68 507.32 598 508C597.691 508.825 597.381 509.65 597.063 510.5C596 513 596 513 593 515C592.856 515.66 592.711 516.32 592.563 517C592.377 517.66 592.191 518.32 592 519C591.361 519.289 590.721 519.578 590.063 519.875C587.653 520.905 587.653 520.905 586.75 524.125C586.503 525.074 586.255 526.023 586 527C585.34 527 584.68 527 584 527C583.918 528.114 583.835 529.227 583.75 530.375C583.503 531.571 583.255 532.768 583 534C582.357 534.29 581.714 534.58 581.051 534.879C578.735 535.853 578.735 535.853 578.059 538.566C577.854 539.555 577.649 540.544 577.438 541.562C576.809 544.566 576.809 544.566 576 547C575.01 547.33 574.02 547.66 573 548C572.897 548.784 572.794 549.568 572.688 550.375C572 553 572 553 569 555C568.67 556.176 568.34 557.351 568 558.562C567.67 559.697 567.34 560.831 567 562C566.01 562.33 565.02 562.66 564 563C563.67 564.65 563.34 566.3 563 568C562.01 568.33 561.02 568.66 560 569C559.691 569.99 559.381 570.98 559.063 572C558.712 572.99 558.362 573.98 558 575C555.875 575.875 555.875 575.875 554 576C553.876 577.134 553.753 578.269 553.625 579.438C553.419 580.613 553.213 581.789 553 583C552.34 583.33 551.68 583.66 551 584C550.526 584.846 550.052 585.691 549.563 586.562C549.047 587.367 548.531 588.171 548 589C547.01 589 546.02 589 545 589C544.67 591.31 544.34 593.62 544 596C543.01 596.33 542.02 596.66 541 597C539.285 600.503 539.285 600.503 538 604C537.34 604 536.68 604 536 604C535.918 604.907 535.835 605.815 535.75 606.75C535 610 535 610 533.125 611.812C530.389 614.63 529.749 617.344 528.711 621.074C528 623 528 623 526 624C525.67 624.99 525.34 625.98 525 627C524 630 524 630 522 631C521.258 632.732 521.258 632.732 520.5 634.5C519 638 519 638 517 639C516.691 639.99 516.381 640.98 516.063 642C515.712 642.99 515.362 643.98 515 645C514.01 645.33 513.02 645.66 512 646C511.67 647.155 511.34 648.31 511 649.5C510.67 650.655 510.34 651.81 510 653C509.01 653.33 508.02 653.66 507 654C505.791 656 505.791 656 505 658C504.34 658 503.68 658 503 658C502.918 659.114 502.835 660.227 502.75 661.375C502.503 662.571 502.255 663.768 502 665C500.063 666.062 500.063 666.062 498 667C497.67 668.011 497.34 669.021 497 670.062C496.67 671.032 496.34 672.001 496 673C493.875 673.875 493.875 673.875 492 674C491.876 675.134 491.753 676.269 491.625 677.438C491.419 678.613 491.213 679.789 491 681C490.34 681.33 489.68 681.66 489 682C488.526 682.846 488.051 683.691 487.563 684.562C487.047 685.367 486.531 686.171 486 687C485.01 687 484.02 687 483 687C482.67 689.31 482.34 691.62 482 694C481.01 694.33 480.02 694.66 479 695C478.34 698.96 477.68 702.92 477 707C476.01 707.33 475.02 707.66 474 708C472.285 711.503 472.285 711.503 471 715C470.34 715 469.68 715 469 715C468.918 715.742 468.835 716.485 468.75 717.25C467.848 720.557 466.465 721.685 464 724C463.474 725.083 463.474 725.083 462.938 726.188C462 728 462 728 459 729C458.276 730.98 457.623 732.986 457 735C456.386 736.451 455.739 737.889 455.063 739.312C454.744 739.989 454.426 740.666 454.098 741.363C453 743 453 743 450 744C449.67 744.825 449.34 745.65 449 746.5C448.67 747.325 448.34 748.15 448 749C447.01 749.33 446.02 749.66 445 750C443.775 753.008 443.775 753.008 443 756C442.34 756 441.68 756 441 756C440.918 757.114 440.835 758.227 440.75 759.375C440.503 760.571 440.255 761.768 440 763C438.063 764.062 438.063 764.062 436 765C435.309 766.992 434.641 768.992 434 771C433.01 771.33 432.02 771.66 431 772C430.115 773.794 430.115 773.794 429.563 776C428.094 780.867 426.144 785.397 424 790C423.01 790 422.02 790 421 790C420.711 791.134 420.423 792.269 420.125 793.438C419.754 794.613 419.383 795.789 419 797C418.34 797.33 417.68 797.66 417 798C416.711 798.99 416.423 799.98 416.125 801C415.754 801.99 415.383 802.98 415 804C412.875 804.875 412.875 804.875 411 805C410.876 806.134 410.753 807.269 410.625 808.438C410.419 809.613 410.213 810.789 410 812C409.34 812.33 408.68 812.66 408 813C407.526 813.846 407.051 814.691 406.563 815.562C406.047 816.367 405.531 817.171 405 818C404.01 818 403.02 818 402 818C401.67 820.31 401.34 822.62 401 825C399.68 825.33 398.36 825.66 397 826C396.34 828.31 395.68 830.62 395 833C394.34 833 393.68 833 393 833C392.918 833.907 392.835 834.815 392.75 835.75C391.883 839.506 390.79 840.457 388 843C387.464 843.907 386.928 844.815 386.375 845.75C385.922 846.492 385.468 847.235 385 848C384.34 848 383.68 848 383 848C382.879 848.615 382.758 849.23 382.633 849.863C382.465 850.672 382.298 851.48 382.125 852.312C381.882 853.513 381.882 853.513 381.633 854.738C381 857 381 857 379 860C378.196 860.33 377.391 860.66 376.563 861C372.875 863.878 372.63 867.144 371.676 871.602C371.453 872.393 371.23 873.185 371 874C370.34 874.33 369.68 874.66 369 875C368.691 876.155 368.382 877.31 368.063 878.5C367.712 879.655 367.361 880.81 367 882C366.01 882.33 365.02 882.66 364 883C363.299 884.315 362.635 885.651 362 887C361 888 360 889 359 890C357.117 892.826 355.76 895.592 354.563 898.75C353 902 353 902 350.813 902.938C349.916 902.968 349.916 902.968 349 903C348.918 903.722 348.835 904.444 348.75 905.188C347.845 908.583 346.287 910.367 344 913C343.34 913.99 342.68 914.98 342 916C341.34 916 340.68 916 340 916C339.67 918.31 339.34 920.62 339 923C338.01 923.33 337.02 923.66 336 924C334.285 927.503 334.285 927.503 333 931C332.01 931 331.02 931 330 931C329.34 933.31 328.68 935.62 328 938C327.34 938 326.68 938 326 938C325.67 939.65 325.34 941.3 325 943C323.68 943.33 322.36 943.66 321 944C320.974 944.843 320.949 945.686 320.922 946.555C320.865 947.65 320.809 948.746 320.75 949.875C320.704 950.966 320.657 952.056 320.61 953.18C320.409 954.11 320.207 955.041 320 956C318.02 957.195 318.02 957.195 316 958C315.296 959.987 314.629 961.988 314 964C313.01 964.66 312.02 965.32 311 966C310.309 967.992 309.641 969.992 309 972C308.34 972.33 307.68 972.66 307 973C306.876 973.639 306.753 974.279 306.625 974.938C306.419 975.618 306.213 976.299 306 977C305.382 977.268 304.763 977.536 304.125 977.812C300.847 979.644 300.354 982.615 299 986C298.34 986.33 297.68 986.66 297 987C296.856 987.804 296.711 988.609 296.563 989.438C296 992 296 992 293 994C292.67 995.011 292.34 996.021 292 997.062C291.67 998.032 291.34 999.001 291 1000C290.01 1000.33 289.02 1000.66 288 1001C287.67 1001.99 287.34 1002.98 287 1004C286.67 1004.99 286.34 1005.98 286 1007C285.01 1007.33 284.02 1007.66 283 1008C282.67 1009.65 282.34 1011.3 282 1013C281.01 1013.33 280.02 1013.66 279 1014C278.691 1014.99 278.382 1015.98 278.063 1017C277.712 1017.99 277.361 1018.98 277 1020C274.875 1020.88 274.875 1020.88 273 1021C272.67 1023.31 272.34 1025.62 272 1028C271.01 1028.33 270.02 1028.66 269 1029C268.836 1030.05 268.836 1030.05 268.668 1031.12C268.43 1032.48 268.43 1032.48 268.188 1033.88C268.037 1034.78 267.886 1035.68 267.731 1036.62C267 1039 267 1039 264 1041C262.984 1042.99 261.983 1044.99 261 1047C260.34 1047.33 259.68 1047.66 259 1048C257.568 1050.67 256.281 1053.39 255.024 1056.14C254.686 1056.86 254.348 1057.57 254 1058.31C253.691 1058.99 253.382 1059.67 253.063 1060.36C252 1062 252 1062 249 1063C247.782 1065.5 247.782 1065.5 247 1068C246.34 1068 245.68 1068 245 1068C244.01 1071.46 244.01 1071.46 243 1075C242.01 1075 241.02 1075 240 1075C239.918 1076.11 239.835 1077.23 239.75 1078.38C239.379 1080.17 239.379 1080.17 239 1082C237.063 1083.06 237.063 1083.06 235 1084C234.273 1085.98 233.602 1087.98 233 1090C232.34 1090.33 231.68 1090.66 231 1091C230.691 1091.97 230.382 1092.94 230.063 1093.94C229 1097 229 1097 226 1099C225.67 1099.68 225.34 1100.36 225 1101.06C224 1103 224 1103 221 1104C219.771 1107.51 219.771 1107.51 219 1111C218.34 1111 217.68 1111 217 1111C216.818 1111.81 216.637 1112.62 216.449 1113.45C216.198 1114.52 215.947 1115.59 215.688 1116.69C215.444 1117.74 215.2 1118.8 214.949 1119.89C213.699 1123.99 212.117 1126.98 208.938 1129.88C206.41 1132.65 206.01 1135.43 205 1139C204.01 1139.33 203.02 1139.66 202 1140C200.988 1141.66 199.988 1143.33 199 1145C198.34 1145 197.68 1145 197 1145C196.67 1147.31 196.34 1149.62 196 1152C195.01 1152.33 194.02 1152.66 193 1153C191.285 1156.5 191.285 1156.5 190 1160C189.01 1160 188.02 1160 187 1160C186.01 1163.46 186.01 1163.46 185 1167C184.34 1167 183.68 1167 183 1167C182.34 1168.98 181.68 1170.96 181 1173C180.01 1173 179.02 1173 178 1173C177.598 1174.67 177.598 1174.67 177.188 1176.38C176 1180 176 1180 173 1182C171.787 1185.05 171.787 1185.05 171 1188C170.34 1188 169.68 1188 169 1188C168.867 1188.77 168.735 1189.54 168.598 1190.34C168.333 1191.84 168.333 1191.84 168.063 1193.38C167.889 1194.37 167.715 1195.37 167.535 1196.4C167 1199 167 1199 166 1201C165.34 1201 164.68 1201 164 1201C163.67 1242.25 163.34 1283.5 163 1326C109.21 1326 55.4202 1326 0.000244141 1326C-0.0616308 1310.86 -0.123506 1295.72 -0.187256 1280.12C-0.214568 1275.34 -0.24188 1270.56 -0.27002 1265.63C-0.283569 1259.79 -0.283554 1259.79 -0.286072 1257.07C-0.290687 1255.16 -0.301255 1253.25 -0.316467 1251.34C-0.338331 1248.45 -0.341477 1245.56 -0.340332 1242.67C-0.356524 1241.39 -0.356528 1241.39 -0.373047 1240.08C-0.360524 1237.73 -0.360519 1237.73 0.000244141 1234C0.990244 1233.34 1.98024 1232.68 3.00024 1232C3.79823 1229.58 3.79823 1229.58 4.18774 1226.88C4.3463 1225.96 4.50485 1225.05 4.66821 1224.12C4.83257 1223.07 4.83257 1223.07 5.00024 1222C11.7502 1220 11.7502 1220 14.0002 1220C14.124 1218.87 14.2477 1217.73 14.3752 1216.56C14.5815 1215.39 14.7877 1214.21 15.0002 1213C15.6602 1212.67 16.3202 1212.34 17.0002 1212C17.7427 1210.52 17.7427 1210.52 18.5002 1209C20.0002 1206 20.0002 1206 22.0002 1205C22.7218 1203.36 23.3938 1201.69 24.0002 1200C24.9902 1200 25.9802 1200 27.0002 1200C27.289 1198.87 27.5777 1197.73 27.8752 1196.56C28.2465 1195.39 28.6177 1194.21 29.0002 1193C29.6602 1192.67 30.3202 1192.34 31.0002 1192C31.3096 1191.22 31.619 1190.43 31.9377 1189.62C33.013 1186.97 33.98 1185.94 36.0002 1184C36.3096 1183.3 36.619 1182.6 36.9377 1181.88C38.0002 1180 38.0002 1180 40.1252 1179.25C41.0534 1179.13 41.0534 1179.13 42.0002 1179C42.3302 1177.02 42.6602 1175.04 43.0002 1173C44.3202 1172.67 45.6402 1172.34 47.0002 1172C47.4952 1168.54 47.4952 1168.54 48.0002 1165C48.9902 1164.67 49.9802 1164.34 51.0002 1164C51.124 1162.82 51.124 1162.82 51.2502 1161.62C51.6215 1160.33 51.6215 1160.33 52.0002 1159C52.6396 1158.69 53.279 1158.38 53.9377 1158.06C56.3538 1157.12 56.3538 1157.12 57.0627 1153.94C57.3721 1152.97 57.6815 1152 58.0002 1151C58.9902 1150.67 59.9802 1150.34 61.0002 1150C61.3302 1149.01 61.6602 1148.02 62.0002 1147C62.3302 1146.01 62.6602 1145.02 63.0002 1144C63.9902 1143.67 64.9802 1143.34 66.0002 1143C66.7052 1140.68 67.3724 1138.34 68.0002 1136C68.6602 1135.67 69.3202 1135.34 70.0002 1135C70.289 1134.34 70.5777 1133.68 70.8752 1133C72.0002 1131 72.0002 1131 74.1252 1130.25C74.744 1130.17 75.3627 1130.08 76.0002 1130C76.0002 1128.02 76.0002 1126.04 76.0002 1124C76.5984 1123.77 77.1965 1123.55 77.8127 1123.31C80.5554 1121.67 81.4199 1119.73 83.0002 1117C83.6602 1117 84.3202 1117 85.0002 1117C85.289 1115.87 85.5777 1114.73 85.8752 1113.56C86.2465 1112.39 86.6177 1111.21 87.0002 1110C87.6602 1109.67 88.3202 1109.34 89.0002 1109C89.7272 1107.02 90.3984 1105.02 91.0002 1103C93.6402 1102.67 96.2802 1102.34 99.0002 1102C99.4952 1098.54 99.4952 1098.54 100 1095C100.99 1094.67 101.98 1094.34 103 1094C103.31 1093.01 103.619 1092.02 103.938 1091C104.288 1090.01 104.639 1089.02 105 1088C107.125 1087.12 107.125 1087.12 109 1087C109.124 1086.2 109.248 1085.39 109.375 1084.56C109.581 1083.72 109.788 1082.87 110 1082C110.66 1081.67 111.32 1081.34 112 1081C113.054 1078.69 114.057 1076.36 115 1074C115.99 1074 116.98 1074 118 1074C118.083 1072.89 118.165 1071.77 118.25 1070.62C118.621 1068.83 118.621 1068.83 119 1067C120.938 1065.81 120.938 1065.81 123 1065C123.683 1063.67 124.351 1062.34 125 1061C125.99 1060.67 126.98 1060.34 128 1060C129.225 1056.99 129.225 1056.99 130 1054C130.66 1054 131.32 1054 132 1054C132.402 1052.33 132.402 1052.33 132.813 1050.62C134 1047 134 1047 137 1045C137.464 1043.98 137.464 1043.98 137.938 1042.94C139 1041 139 1041 141.125 1040.25C142.053 1040.13 142.053 1040.13 143 1040C142.969 1038.55 142.969 1038.55 142.938 1037.06C143 1034 143 1034 144 1033C146.328 1032.63 148.662 1032.3 151 1032C151.038 1031.31 151.075 1030.63 151.114 1029.92C151.179 1029.02 151.245 1028.12 151.313 1027.19C151.371 1026.29 151.429 1025.4 151.489 1024.48C152.072 1021.65 152.727 1020.73 155 1019C155.846 1018.71 156.691 1018.42 157.563 1018.12C160.231 1017.22 160.231 1017.22 161.125 1014.5C161.414 1013.67 161.703 1012.85 162 1012C162.99 1011.34 163.98 1010.68 165 1010C165.33 1009.15 165.66 1008.31 166 1007.44C166.33 1006.63 166.66 1005.83 167 1005C167.99 1004.67 168.98 1004.34 170 1004C171.716 1000.5 171.716 1000.5 173 997C173.66 997 174.32 997 175 997C175.33 995.35 175.66 993.7 176 992C176.99 991.67 177.98 991.34 179 991C180.716 987.497 180.716 987.497 182 984C182.99 984 183.98 984 185 984C185.083 982.886 185.165 981.773 185.25 980.625C185.498 979.429 185.745 978.232 186 977C187.938 975.812 187.938 975.812 190 975C191.268 972.966 191.268 972.966 192 971C192.66 971 193.32 971 194 971C194.083 969.886 194.165 968.773 194.25 967.625C194.498 966.429 194.745 965.232 195 964C196.938 962.875 196.938 962.875 199 962C199.702 960.348 200.37 958.681 201 957C201.99 956.34 202.98 955.68 204 955C204.33 954.175 204.66 953.35 205 952.5C206 950 206 950 209 948C209.268 947.196 209.536 946.391 209.813 945.562C211.444 942.042 213.473 941.396 217 940C217.66 940 218.32 940 219 940C219 938.68 219 937.36 219 936C219.99 935.34 220.98 934.68 222 934C222.33 932.989 222.66 931.979 223 930.938C223.33 929.968 223.66 928.999 224 928C224.99 927.67 225.98 927.34 227 927C227.495 926.154 227.99 925.309 228.5 924.438C228.995 923.633 229.49 922.829 230 922C230.99 922 231.98 922 233 922C233.186 920.298 233.186 920.298 233.375 918.562C233.581 917.387 233.788 916.211 234 915C234.66 914.67 235.32 914.34 236 914C236.31 913.031 236.619 912.061 236.938 911.062C238 908 238 908 241 906C242.016 904.008 243.017 902.008 244 900C244.66 899.67 245.32 899.34 246 899C246.475 898.154 246.949 897.309 247.438 896.438C247.953 895.633 248.469 894.829 249 894C249.99 894 250.98 894 252 894C252.186 892.298 252.186 892.298 252.375 890.562C252.581 889.387 252.788 888.211 253 887C253.66 886.67 254.32 886.34 255 886C255.475 885.01 255.949 884.02 256.438 883C258 880 258 880 261 879C261.083 878.216 261.165 877.432 261.25 876.625C261.498 875.759 261.745 874.893 262 874C262.64 873.691 263.279 873.381 263.938 873.062C266.354 872.118 266.354 872.118 267.063 868.938C267.372 867.968 267.681 866.999 268 866C268.99 865.67 269.98 865.34 271 865C271.697 863.346 272.361 861.677 273 860C273.98 858.98 274.979 857.979 276 857C276.402 856.041 276.402 856.041 276.813 855.062C278.525 852.089 281.175 850.884 284 849C285.176 846.9 285.176 846.9 286 845C286.99 844.67 287.98 844.34 289 844C289.33 843.01 289.66 842.02 290 841C290.33 840.01 290.66 839.02 291 838C291.99 837.67 292.98 837.34 294 837C294.705 834.678 295.372 832.344 296 830C296.66 829.67 297.32 829.34 298 829C298.289 828.34 298.578 827.68 298.875 827C300 825 300 825 302.125 824.25C303.053 824.126 303.053 824.126 304 824C304.33 821.69 304.66 819.38 305 817C305.99 816.67 306.98 816.34 308 816C308.33 815.01 308.66 814.02 309 813C309.33 812.01 309.66 811.02 310 810C310.99 809.67 311.98 809.34 313 809C313.702 807.348 314.37 805.681 315 804C315.66 803.67 316.32 803.34 317 803C317.495 802.01 317.99 801.02 318.5 800C320 797 320 797 322 796C322.289 795.01 322.578 794.02 322.875 793C323.246 792.01 323.618 791.02 324 790C326.125 789.125 326.125 789.125 328 789C328.402 787.329 328.402 787.329 328.813 785.625C330 782 330 782 333 780C333.724 777.941 333.724 777.941 334 776C334.99 776 335.98 776 337 776C337.402 774.329 337.402 774.329 337.813 772.625C339 769 339 769 342 767C342.33 766.34 342.66 765.68 343 765C344 763 344 763 347 761C347.33 759.989 347.66 758.979 348 757.938C348.33 756.968 348.66 755.999 349 755C349.99 754.67 350.98 754.34 352 754C352.433 753.216 352.866 752.432 353.313 751.625C355 749 355 749 358.063 747.562C361.29 746.251 361.29 746.251 362.25 742.875C362.498 741.926 362.745 740.977 363 740C363.66 739.67 364.32 739.34 365 739C365.289 738.34 365.578 737.68 365.875 737C367 735 367 735 369.125 734.25C370.053 734.126 370.053 734.126 371 734C371.33 731.69 371.66 729.38 372 727C372.99 726.67 373.98 726.34 375 726C375.31 725.01 375.619 724.02 375.938 723C376.288 722.01 376.639 721.02 377 720C379.125 719.125 379.125 719.125 381 719C381.124 718.196 381.248 717.391 381.375 716.562C381.685 715.294 381.685 715.294 382 714C382.66 713.67 383.32 713.34 384 713C384.289 712.01 384.578 711.02 384.875 710C385.246 709.01 385.618 708.02 386 707C388.125 706.125 388.125 706.125 390 706C390.33 703.69 390.66 701.38 391 699C391.99 698.67 392.98 698.34 394 698C394.743 696.268 394.743 696.268 395.5 694.5C396.243 692.768 396.243 692.768 397 691C397.99 690.67 398.98 690.34 400 690C400.354 688.672 400.685 687.338 401 686C402 685 403 684 404 683C404.33 682.134 404.66 681.268 405 680.375C405.33 679.591 405.66 678.807 406 678C406.99 677.67 407.98 677.34 409 677C409.733 674.985 409.733 674.985 410 673C411.32 672.67 412.64 672.34 414 672C414.083 671.237 414.165 670.474 414.25 669.688C415.168 666.398 416.119 665.729 419 664C419.7 663.732 420.4 663.464 421.121 663.188C421.741 662.796 422.361 662.404 423 662C423.403 659.965 423.403 659.965 423.25 657.688C423.399 655.223 423.399 655.223 424 653C425.727 651.684 425.727 651.684 427.875 650.625C430.889 649.107 431.823 648.407 433.196 645.254C433.916 642.51 434.53 639.797 435 637C437.31 636.67 439.62 636.34 442 636C442.268 635.031 442.536 634.061 442.813 633.062C443.205 632.052 443.596 631.041 444 630C444.99 629.67 445.98 629.34 447 629C447.103 628.051 447.206 627.102 447.313 626.125C448 623 448 623 451 621C451.495 620.134 451.99 619.268 452.5 618.375C452.995 617.591 453.49 616.807 454 616C454.99 616 455.98 616 457 616C457.33 613.69 457.66 611.38 458 609C458.99 608.67 459.98 608.34 461 608C462.716 604.497 462.716 604.497 464 601C464.66 601 465.32 601 466 601C466.33 599.35 466.66 597.7 467 596C467.99 595.67 468.98 595.34 470 595C470.743 593.268 470.743 593.268 471.5 591.5C472.243 589.768 472.243 589.768 473 588C473.99 587.67 474.98 587.34 476 587C477.219 584.496 477.219 584.496 478 582C478.66 582 479.32 582 480 582C480.66 579.69 481.32 577.38 482 575C482.99 575 483.98 575 485 575C485.083 573.886 485.165 572.773 485.25 571.625C485.498 570.429 485.745 569.232 486 568C487.938 566.938 487.938 566.938 490 566C490.691 564.008 491.359 562.008 492 560C492.99 559.67 493.98 559.34 495 559C496.219 556.496 496.219 556.496 497 554C497.99 554 498.98 554 500 554C500.289 552.866 500.578 551.731 500.875 550.562C501.246 549.387 501.618 548.211 502 547C502.66 546.67 503.32 546.34 504 546C504.413 545.216 504.825 544.432 505.25 543.625C507 541 507 541 510.063 539.562C513.295 538.257 513.295 538.257 514.188 534.875C514.456 533.926 514.724 532.977 515 532C515.99 531.67 516.98 531.34 518 531C519.219 528.496 519.219 528.496 520 526C520.99 526 521.98 526 523 526C523.289 524.866 523.578 523.731 523.875 522.562C524.247 521.387 524.618 520.211 525 519C525.66 518.67 526.32 518.34 527 518C527.289 517.196 527.578 516.391 527.875 515.562C529 513 529 513 531.063 512.062C531.702 511.712 532.341 511.361 533 511C533.348 509.002 533.68 507.002 534 505C536 502.812 536 502.812 538 501C538.33 500.01 538.66 499.02 539 498C539.99 498 540.98 498 542 498C542.083 497.092 542.165 496.185 542.25 495.25C543.108 491.534 544.193 490.467 547 488C547.66 487.01 548.32 486.02 549 485C549.99 485 550.98 485 552 485C552.124 483.329 552.124 483.329 552.25 481.625C552.498 480.429 552.745 479.233 553 478C554.938 476.938 554.938 476.938 557 476C557.691 474.008 558.359 472.008 559 470C559.99 469.67 560.98 469.34 562 469C562.712 467.793 562.712 467.793 563.438 466.562C565 464 565 464 566.977 463.148C569.744 461.578 569.986 460.048 570.938 457.062C572.696 452.239 572.696 452.239 575.625 449.938C576.409 449.628 577.193 449.319 578 449C578.66 448.67 579.32 448.34 580 448C580.476 446.244 580.882 444.469 581.25 442.688C582.604 437.316 582.604 437.316 586.063 434.562C587.517 433.789 587.517 433.789 589 433C589.682 431.674 590.352 430.342 591 429C593.125 428.25 593.125 428.25 595 428C595.33 425.69 595.66 423.38 596 421C596.99 420.67 597.98 420.34 599 420C600.716 416.497 600.716 416.497 602 413C602.66 413 603.32 413 604 413C604.33 411.35 604.66 409.7 605 408C605.99 407.67 606.98 407.34 608 407C609.716 403.497 609.716 403.497 611 400C611.99 400 612.98 400 614 400C614.66 397.69 615.32 395.38 616 393C616.99 393 617.98 393 619 393C619.268 392.072 619.536 391.144 619.813 390.188C620.958 387.114 621.684 386.124 624 384C624.33 383.299 624.66 382.598 625 381.875C626 380 626 380 629 379C629.702 377.348 630.37 375.681 631 374C631.66 373.67 632.32 373.34 633 373C633.289 372.01 633.578 371.02 633.875 370C634.247 369.01 634.618 368.02 635 367C637.125 366.125 637.125 366.125 639 366C639.186 364.298 639.186 364.298 639.375 362.562C639.581 361.387 639.788 360.211 640 359C640.66 358.67 641.32 358.34 642 358C642.619 356.546 642.619 356.546 643.25 355.062C643.828 354.052 644.405 353.041 645 352C645.99 351.773 646.98 351.546 648 351.312C648.99 350.879 649.98 350.446 651 350C651.954 347.226 652.526 344.442 653.153 341.578C654 339 654 339 657.063 336.812C660 336 660 336 662 336C662.124 335.196 662.248 334.391 662.375 333.562C662.581 332.717 662.788 331.871 663 331C663.66 330.67 664.32 330.34 665 330C665.712 328.515 665.712 328.515 666.438 327C668 324 668 324 671 323C671.33 321.35 671.66 319.7 672 318C672.99 317.67 673.98 317.34 675 317C676.716 313.497 676.716 313.497 678 310C678.99 310 679.98 310 681 310C681.124 308.329 681.124 308.329 681.25 306.625C681.498 305.429 681.745 304.233 682 303C683.938 301.812 683.938 301.812 686 301C687.268 298.966 687.268 298.966 688 297C688.66 297 689.32 297 690 297C690.124 295.329 690.124 295.329 690.25 293.625C690.498 292.429 690.745 291.233 691 290C692.938 288.938 692.938 288.938 695 288C695.691 286.008 696.359 284.008 697 282C697.99 281.67 698.98 281.34 700 281C700.733 278.985 700.733 278.985 701 277C702.32 276.67 703.64 276.34 705 276C705.289 274.866 705.578 273.731 705.875 272.562C706.247 271.387 706.618 270.211 707 269C707.66 268.67 708.32 268.34 709 268C709.619 266.546 709.619 266.546 710.25 265.062C710.828 264.052 711.405 263.041 712 262C712.99 261.773 713.98 261.546 715 261.312C715.99 260.879 716.98 260.446 718 260C718.88 257.52 718.88 257.52 719.438 254.625C720.573 249.378 720.573 249.378 722.664 247.527C724.419 246.636 726.209 245.814 728 245C729.328 242.933 729.328 242.933 730 241C730.66 240.67 731.32 240.34 732 240C732.289 239.01 732.578 238.02 732.875 237C733.247 236.01 733.618 235.02 734 234C736.125 233.125 736.125 233.125 738 233C738.33 230.69 738.66 228.38 739 226C739.99 225.67 740.98 225.34 742 225C742.495 224.154 742.99 223.309 743.5 222.438C744.243 221.231 744.243 221.231 745 220C745.99 220 746.98 220 748 220C748.124 218.866 748.248 217.731 748.375 216.562C748.581 215.387 748.788 214.211 749 213C749.66 212.67 750.32 212.34 751 212C751.712 210.515 751.712 210.515 752.438 209C754 206 754 206 757 205C757.083 204.216 757.165 203.432 757.25 202.625C757.498 201.759 757.745 200.893 758 200C758.959 199.536 758.959 199.536 759.938 199.062C762.354 198.118 762.354 198.118 763.063 194.938C763.372 193.968 763.682 192.999 764 192C764.99 191.67 765.98 191.34 767 191C768.219 188.496 768.219 188.496 769 186C769.99 186 770.98 186 772 186C772.289 184.866 772.578 183.731 772.875 182.562C773.247 181.387 773.618 180.211 774 179C774.66 178.67 775.32 178.34 776 178C776.227 177.031 776.454 176.061 776.688 175.062C777.337 173.547 777.337 173.547 778 172C780.334 171.333 782.667 170.667 785 170C786.305 167.004 786.305 167.004 787 164C787.99 163.67 788.98 163.34 790 163C790.33 162.01 790.66 161.02 791 160C791.33 159.01 791.66 158.02 792 157C792.99 156.67 793.98 156.34 795 156C795.33 154.35 795.66 152.7 796 151C796.99 150.67 797.98 150.34 799 150C800.23 146.488 800.23 146.488 801 143C802.32 143 803.64 143 805 143C805.33 140.69 805.66 138.38 806 136C806.99 135.67 807.98 135.34 809 135C809.702 133.348 810.37 131.681 811 130C811.66 129.67 812.32 129.34 813 129C813.289 128.01 813.578 127.02 813.875 126C814.247 125.01 814.618 124.02 815 123C817.125 122.125 817.125 122.125 819 122C819.083 121.216 819.165 120.433 819.25 119.625C819.498 118.759 819.745 117.893 820 117C820.64 116.691 821.279 116.381 821.938 116.062C824.343 115.122 824.343 115.122 825.063 112C825.372 111.01 825.682 110.02 826 109C827.485 108.01 827.485 108.01 829 107C829.713 105.352 830.374 103.682 831 102C832.672 98.9476 834.218 96.1399 837 94C838.659 93.6313 840.326 93.2944 842 93C842.121 92.3013 842.243 91.6027 842.367 90.8828C842.535 89.9727 842.703 89.0627 842.875 88.125C843.038 87.2201 843.2 86.3152 843.367 85.3828C844 83 844 83 846 81C847.988 80.6024 849.99 80.2622 852 80C852.268 79.0306 852.536 78.0612 852.813 77.0625C853.401 75.5466 853.401 75.5466 854 74C855.485 73.505 855.485 73.505 857 73C857.705 70.6779 858.372 68.3441 859 66C859.66 65.67 860.32 65.34 861 65C861.31 64.1956 861.619 63.3913 861.938 62.5625C863 60 863 60 866 58C866.33 57.1544 866.66 56.3088 867 55.4375C867.33 54.6331 867.66 53.8288 868 53C869.485 52.505 869.485 52.505 871 52C871.704 50.0128 872.371 48.0122 873 46C873.66 45.67 874.32 45.34 875 45C875.31 44.2163 875.619 43.4325 875.938 42.625C877.022 39.9453 877.963 38.9556 880 37C880.743 35.6697 880.743 35.6697 881.5 34.3125C882.243 33.1678 882.243 33.1678 883 32C883.99 32 884.98 32 886 32C886.33 29.69 886.66 27.38 887 25C888.32 25 889.64 25 891 25C891.33 22.69 891.66 20.38 892 18C892.99 17.67 893.98 17.34 895 17C895.083 16.2162 895.165 15.4325 895.25 14.625C895.498 13.7587 895.745 12.8925 896 12C896.959 11.5359 896.959 11.5359 897.938 11.0625C900.354 10.1179 900.354 10.1179 901.063 6.9375C901.372 5.96812 901.682 4.99875 902 4C903.485 3.505 903.485 3.505 905 3C905.33 2.01 905.66 1.02 906 0Z" fill="#254F22"/>
<path d="M4 609C62.9875 608.979 121.975 608.959 182.75 608.937C201.383 608.928 220.016 608.919 239.214 608.91C261.948 608.905 261.948 608.905 272.587 608.904C280.025 608.904 287.464 608.9 294.903 608.894C303.484 608.888 312.066 608.885 320.648 608.886C325.036 608.887 329.425 608.886 333.813 608.881C337.787 608.876 341.76 608.876 345.734 608.879C347.165 608.879 348.597 608.878 350.028 608.875C372.656 608.828 372.656 608.828 377 611C377 612.65 377 614.3 377 616C376.381 616.206 375.763 616.412 375.125 616.625C372.17 618.537 372.044 620.728 371 624C369.515 624.495 369.515 624.495 368 625C367.897 625.949 367.794 626.897 367.688 627.875C367 631 367 631 364 633C362.942 634.631 361.947 636.303 361 638C360.464 638.887 359.927 639.774 359.375 640.687C358.536 642.098 357.734 643.532 357 645C355.515 645.495 355.515 645.495 354 646C353.546 646.784 353.092 647.567 352.625 648.375C351 651 351 651 348.5 652.437C345.298 654.439 344.542 656.621 343 660C342.34 660.33 341.68 660.66 341 661C340.288 662.268 340.288 662.268 339.562 663.562C339.047 664.367 338.531 665.171 338 666C337.01 666 336.02 666 335 666C334.67 668.31 334.34 670.62 334 673C332.515 673.495 332.515 673.495 331 674C329.284 677.503 329.284 677.503 328 681C327.34 681 326.68 681 326 681C325.67 682.65 325.34 684.3 325 686C324.381 686.041 323.763 686.082 323.125 686.125C322.424 686.414 321.723 686.702 321 687C320.296 688.987 319.629 690.988 319 693C317.515 693.495 317.515 693.495 316 694C315.918 695.114 315.835 696.227 315.75 697.375C315.379 699.169 315.379 699.169 315 701C313.062 702.187 313.062 702.187 311 703C310.315 704.324 309.651 705.659 309 707C306.228 709.99 303.419 712.76 300 715C299.34 715 298.68 715 298 715C297.732 715.949 297.464 716.897 297.188 717.875C296 721 296 721 293 723C292.67 723.846 292.34 724.691 292 725.562C291.67 726.367 291.34 727.171 291 728C289.515 728.495 289.515 728.495 288 729C287.67 729.99 287.34 730.98 287 732C286.67 732.99 286.34 733.98 286 735C284.515 735.495 284.515 735.495 283 736C282.629 737.454 282.629 737.454 282.25 738.937C281.837 739.948 281.425 740.959 281 742C278.667 742.667 276.333 743.333 274 744C272.695 746.996 272.695 746.996 272 750C271.01 750.33 270.02 750.66 269 751C268.298 752.652 267.63 754.319 267 756C266.34 756.33 265.68 756.66 265 757C263.946 759.31 262.943 761.643 262 764C261.01 764 260.02 764 259 764C258.67 765.98 258.34 767.96 258 770C257.381 770.041 256.762 770.082 256.125 770.125C255.073 770.558 255.073 770.558 254 771C252.842 773.975 252.842 773.975 252 777C251.34 777.33 250.68 777.66 250 778C249.526 778.99 249.051 779.98 248.562 781C247 784 247 784 244 785C243.319 786.661 242.653 788.328 242 790C241.01 790.66 240.02 791.32 239 792C238.312 793.658 237.644 795.325 237 797C236.34 797.33 235.68 797.66 235 798C234.342 801.029 234.342 801.029 234 804C232.721 804.206 231.443 804.412 230.125 804.625C227.914 805.087 227.914 805.087 226 806C224.616 808.984 224.616 808.984 224 812C223.01 812.33 222.02 812.66 221 813C220.67 814.155 220.34 815.31 220 816.5C219.67 817.655 219.34 818.81 219 820C218.01 820.33 217.02 820.66 216 821C214.988 822.659 213.987 824.326 213 826C212.34 826 211.68 826 211 826C210.917 826.784 210.835 827.567 210.75 828.375C210 831 210 831 208.228 832.15C205.838 833.062 204.147 833.242 201.599 833.227C200.308 833.227 200.308 833.227 198.991 833.227C198.071 833.216 197.151 833.206 196.203 833.195C195.254 833.192 194.306 833.19 193.328 833.187C190.302 833.175 187.276 833.15 184.25 833.125C182.197 833.115 180.143 833.106 178.09 833.098C173.06 833.076 168.03 833.041 163 833C163.004 833.836 163.009 834.673 163.013 835.534C163.054 843.435 163.084 851.335 163.104 859.236C163.114 863.297 163.128 867.358 163.151 871.419C163.173 875.342 163.185 879.265 163.19 883.187C163.193 884.68 163.201 886.173 163.211 887.666C163.226 889.765 163.228 891.864 163.227 893.963C163.231 895.156 163.236 896.348 163.241 897.577C162.978 901.309 162.253 904.477 161 908C160.34 908.33 159.68 908.66 159 909C158.66 910.392 158.66 910.392 158.312 911.812C156.74 915.631 155.24 915.994 151.664 917.738C148.917 919.821 148.65 922.685 147.809 925.906C146.567 929.122 143.808 930.128 141 932C140.137 934.118 140.137 934.118 139.562 936.5C138.91 938.914 138.91 938.914 138 941C136.232 941.947 134.46 942.893 132.629 943.711C129.648 946.07 129.57 949.875 128.812 953.441C127.628 957.171 125.352 958.217 122 960C120.824 962.1 120.824 962.1 120 964C119.01 964.33 118.02 964.66 117 965C115.284 968.503 115.284 968.503 114 972C113.01 972 112.02 972 111 972C110.897 973.114 110.794 974.227 110.688 975.375C110.461 976.571 110.234 977.767 110 979C109.01 979.66 108.02 980.32 107 981C105.808 983.05 105.808 983.05 105 985C104.01 985 103.02 985 102 985C101.918 986.114 101.835 987.227 101.75 988.375C101.503 989.571 101.255 990.767 101 992C99.0625 993.062 99.0625 993.062 97 994C96.309 995.992 95.641 997.992 95 1000C94.01 1000.33 93.02 1000.66 92 1001C91.3056 1002.99 90.6439 1004.99 90 1007C86.6094 1012.8 86.6094 1012.8 83 1014C82.6906 1014.99 82.3812 1015.98 82.0625 1017C81.7119 1017.99 81.3613 1018.98 81 1020C78.875 1020.87 78.875 1020.87 77 1021C76.8763 1022.13 76.7525 1023.27 76.625 1024.44C76.4187 1025.61 76.2125 1026.79 76 1028C75.34 1028.33 74.68 1028.66 74 1029C73.5359 1030.24 73.5359 1030.24 73.0625 1031.5C72.7119 1032.32 72.3613 1033.15 72 1034C71.01 1034.33 70.02 1034.66 69 1035C68.67 1035.99 68.34 1036.98 68 1038C67.67 1038.99 67.34 1039.98 67 1041C66.01 1041.33 65.02 1041.66 64 1042C62.2843 1045.5 62.2843 1045.5 61 1049C60.34 1049 59.68 1049 59 1049C58.67 1050.65 58.34 1052.3 58 1054C56.68 1054.33 55.36 1054.66 54 1055C53.67 1057.31 53.34 1059.62 53 1062C51.68 1062 50.36 1062 49 1062C48.9175 1063.11 48.835 1064.23 48.75 1065.37C48.5025 1066.57 48.255 1067.77 48 1069C46.125 1070.12 46.125 1070.12 44 1071C42.977 1072.65 41.9738 1074.32 41 1076C40.34 1076 39.68 1076 39 1076C38.7319 1077.13 38.4637 1078.27 38.1875 1079.44C37.7956 1080.61 37.4038 1081.79 37 1083C36.01 1083.33 35.02 1083.66 34 1084C32.7912 1086 32.7912 1086 32 1088C31.34 1088 30.68 1088 30 1088C29.8762 1089.61 29.8762 1089.61 29.75 1091.25C28.9217 1095.39 28.0705 1096.3 25 1099C24.6494 1099.72 24.2987 1100.44 23.9375 1101.19C23 1103 23 1103 20 1104C19.3194 1105.21 19.3194 1105.21 18.625 1106.44C17 1109 17 1109 14.4375 1109.94C11.6621 1110.81 11.6621 1110.81 10.75 1114.06C10.5025 1115.03 10.255 1116 10 1117C9.67 1117.33 9.34 1117.66 9 1118C7.35 1118 5.7 1118 4 1118C4 950.03 4 782.06 4 609Z" fill="#254F22"/>
</g>
<defs>
<clipPath id="clip0_87_18">
<rect width="1244" height="1326" fill="white"/>
</clipPath>
</defs>
</svg>
